<mxfile host="app.diagrams.net">
  <diagram name="GenAI Language Learning Flow" id="LangLearnGenAIFlow">
    <mxGraphModel dx="1000" dy="800" grid="1" gridSize="10" guides="1" tooltips="1" connect="1" arrows="1" fold="1" page="1" pageScale="1" pageWidth="827" pageHeight="1169">
      <root>
        <mxCell id="0"/>
        <mxCell id="1" parent="0"/>
        
        <!-- Actors -->
        <mxCell id="2" value="Student" style="shape=umlActor;whiteSpace=wrap;html=1;" vertex="1" parent="1">
          <mxGeometry x="100" y="40" width="40" height="60" as="geometry"/>
        </mxCell>
        <mxCell id="3" value="Teacher" style="shape=umlActor;whiteSpace=wrap;html=1;" vertex="1" parent="1">
          <mxGeometry x="100" y="150" width="40" height="60" as="geometry"/>
        </mxCell>

        <!-- Lang Portal -->
        <mxCell id="4" value="Lang Portal&#xa;Word Group" style="rounded=1;whiteSpace=wrap;html=1;fillColor=#dae8fc;" vertex="1" parent="1">
          <mxGeometry x="250" y="90" width="120" height="50" as="geometry"/>
        </mxCell>

        <!-- Payment Gateway -->
        <mxCell id="5" value="Payment Gateway" style="rounded=1;whiteSpace=wrap;html=1;fillColor=#fff2cc;" vertex="1" parent="1">
          <mxGeometry x="250" y="20" width="120" height="40" as="geometry"/>
        </mxCell>

        <!-- Study Activities -->
        <mxCell id="6" value="Study Activities" style="rounded=1;whiteSpace=wrap;html=1;fillColor=#e1d5e7;" vertex="1" parent="1">
          <mxGeometry x="420" y="90" width="120" height="100" as="geometry"/>
        </mxCell>

        <!-- Activities List -->
        <mxCell id="7" value="• Writing Practicing App&#xa;• Visual Flashcard Vocab&#xa;• Sentence Constructor&#xa;• Text Adventure Game&#xa;• Speak to Learn" style="whiteSpace=wrap;html=1;" vertex="1" parent="1">
          <mxGeometry x="560" y="90" width="200" height="100" as="geometry"/>
        </mxCell>

        <!-- Sentence Constructor Output -->
        <mxCell id="8" value="Study Activity: Sentence Constructor" style="rounded=1;whiteSpace=wrap;html=1;fillColor=#d5e8d4;" vertex="1" parent="1">
          <mxGeometry x="420" y="210" width="200" height="50" as="geometry"/>
        </mxCell>

        <!-- Database -->
        <mxCell id="9" value="Database&#xa;Core 2000 Words" style="shape=database;whiteSpace=wrap;html=1;fillColor=#fff2cc;" vertex="1" parent="1">
          <mxGeometry x="250" y="210" width="120" height="60" as="geometry"/>
        </mxCell>

        <!-- Model API -->
        <mxCell id="10" value="Model API&#xa;Generation" style="rounded=1;whiteSpace=wrap;html=1;fillColor=#f8cecc;" vertex="1" parent="1">
          <mxGeometry x="420" y="280" width="120" height="50" as="geometry"/>
        </mxCell>

        <!-- Edges -->
        <mxCell id="11" style="endArrow=block;html=1;" edge="1" parent="1" source="2" target="4"><mxGeometry relative="1" as="geometry"/></mxCell>
        <mxCell id="12" style="endArrow=block;html=1;" edge="1" parent="1" source="3" target="4"><mxGeometry relative="1" as="geometry"/></mxCell>
        <mxCell id="13" style="endArrow=block;html=1;" edge="1" parent="1" source="4" target="6"><mxGeometry relative="1" as="geometry"/></mxCell>
        <mxCell id="14" style="endArrow=block;html=1;" edge="1" parent="1" source="6" target="8"><mxGeometry relative="1" as="geometry"/></mxCell>
        <mxCell id="15" style="endArrow=block;html=1;" edge="1" parent="1" source="9" target="8"><mxGeometry relative="1" as="geometry"/></mxCell>
        <mxCell id="16" style="endArrow=block;html=1;" edge="1" parent="1" source="8" target="10"><mxGeometry relative="1" as="geometry"/></mxCell>
        <mxCell id="17" style="endArrow=block;html=1;" edge="1" parent="1" source="2" target="5"><mxGeometry relative="1" as="geometry"/></mxCell>
      </root>
    </mxGraphModel>
  </diagram>
</mxfile>
